<svg xmlns="http://www.w3.org/2000/svg" width="28" height="28" viewBox="0 0 28 28">
    <g fill="none" fill-rule="evenodd">
        <g fill-rule="nonzero">
            <g>
                <g>
                    <path fill="#4267B2" d="M26.454 0H1.544C.691 0 0 .692 0 1.546v24.91C0 27.309.692 28 1.546 28h24.908c.854 0 1.546-.691 1.546-1.545V1.544C28 .69 27.308 0 26.454 0z" transform="translate(-1143 -594) translate(928 273) translate(215 321)"/>
                    <path fill="#FFF" d="M19.796 28V17.068h3.552l.532-4.28h-4.084v-2.725c0-1.236.33-2.078 2.039-2.078H24V4.168C23.623 4.116 22.331 4 20.827 4c-3.14 0-5.288 1.988-5.288 5.64v3.149H12v4.279h3.539V28h4.257z" transform="translate(-1143 -594) translate(928 273) translate(215 321)"/>
                </g>
            </g>
        </g>
    </g>
</svg>
