<svg xmlns="http://www.w3.org/2000/svg" width="28" height="28" viewBox="0 0 28 28">
    <g fill="none" fill-rule="evenodd">
        <g fill-rule="nonzero">
            <g>
                <g>
                    <path fill="#FBBB00" d="M6 17.307l-.942 3.618L1.613 21C.583 19.036 0 16.79 0 14.402 0 12.094.546 9.917 1.514 8l3.067.578 1.343 3.135c-.281.843-.434 1.748-.434 2.69 0 1.021.18 2 .51 2.904z" transform="translate(-1069 -594) translate(928 273) translate(141 321)"/>
                    <path fill="#518EF8" d="M27.75 11c.164.876.25 1.78.25 2.706 0 1.037-.108 2.048-.313 3.024-.697 3.32-2.518 6.219-5.04 8.27l-4.085-.212-.578-3.65c1.673-.994 2.981-2.548 3.67-4.408H14V11h13.75z" transform="translate(-1069 -594) translate(928 273) translate(141 321)"/>
                    <path fill="#28B446" d="M23 24.939C20.612 26.855 17.578 28 14.275 28 8.968 28 4.354 25.041 2 20.687L6.516 17c1.177 3.133 4.207 5.363 7.76 5.363 1.526 0 2.957-.412 4.184-1.13L23 24.939z" transform="translate(-1069 -594) translate(928 273) translate(141 321)"/>
                    <path fill="#F14336" d="M23 3.139l-4.669 3.616c-1.314-.777-2.867-1.226-4.53-1.226-3.757 0-6.949 2.288-8.105 5.471L1 7.364H1C3.399 2.989 8.23 0 13.8 0c3.498 0 6.704 1.178 9.2 3.139z" transform="translate(-1069 -594) translate(928 273) translate(141 321)"/>
                </g>
            </g>
        </g>
    </g>
</svg>
